<svg xmlns="http://www.w3.org/2000/svg" viewBox="0 0 203.7 117.8">
<g>
<path fill="#333333" d="M202.8,27.2c0.8,2.3,0.9,5-1,8.3c0,0-1.6-1-2.6-4s-5.9-1.2-6.1-1.1C198.3,26.9,201.9,24.6,202.8,27.2L202.8,27.2z"/>
<path fill="#F2F2F2" d="M199.1,31.4c1,3,2.6,4,2.6,4c-1.2,2.1-3.1,4.3-6.2,6.9l-0.1,0.1c-0.2,0-0.6-0.6-1.5-3.7c-1.3-4.7-7.7-4.3-7.7-4.3c2.5-1.4,4.8-2.8,6.8-4.1l0,0C193.2,30.2,198.1,28.5,199.1,31.4L199.1,31.4z"/>
<path fill="#94938F" d="M195.4,42.4l0.1-0.1C195.5,42.3,195.5,42.5,195.4,42.4z"/>
<path fill="#333333" d="M193.9,38.7c0.9,3.1,1.3,3.7,1.5,3.7c-2.7,2.2-6.3,4.6-10.9,7.3c0.1-0.1,1-1.6,0.9-5.9c-0.1-4.4-6-6-6.4-5.9c2.5-1,5-2.2,7.2-3.5C186.2,34.4,192.6,34.1,193.9,38.7z"/>
<path fill="#FFFFFF" d="M185.4,43.8c0.1,4.3-0.8,5.8-0.9,5.9l0,0c-0.6,0.4-1.3,0.7-2,1.1c-2.7,1.5-6.7,1.7-11.1,1.1l0.1-0.5c0,0,1.6-1.5,2.7-4.6c0.9-2.6-1.7-5.9-2.5-6.8c0.5-0.1,0.9-0.1,1.4-0.2c2-0.4,4-1.1,5.9-1.9l0,0C179.3,37.8,185.3,39.4,185.4,43.8L185.4,43.8z"/>
<path fill="#333333" d="M171.7,40.1c0.7,0.9,3.3,4.1,2.5,6.8c-1,3.1-2.7,4.6-2.7,4.6l-0.1,0.5c-2.7-0.3-5.5-1-8.3-1.8c3.8-5.6-0.3-11.4-0.3-11.4C165.7,39.9,168.7,40.4,171.7,40.1L171.7,40.1z"/>
<path fill="#FFFFFF" d="M162.8,38.7c0,0,4.1,5.8,0.3,11.4c-3-0.9-6-2.1-8.6-3.3l0,0c0,0,1.8-1.4,3-5.1c1.2-3.6-2.4-7.3-2.5-7.5C157.5,36,160.1,37.6,162.8,38.7z"/>
<path fill="#333333" d="M160.3,111.8c2.6,2.5,2.4,2.2,0,2.2s-4.7-2.6-3.6,0.9c1.1,3.5-0.3,2.9-2.1,0.8c-1.9-2-1.3-4.6-2.4-2.5c-1.2,2-2.4,3.6-3.2,3c-0.8-0.7,4.7-11.3,4.7-11.3c-3.4-2.7-20.4-19.5-21.1-19.8l3.7,1.7c0,0,2.1,1.1,4.4,2.2c2.4,1.2,5,2.5,5.4,2.5c0.7,0,1.4-4.9,1.4-4.9l4.6,2.9l2.5-10.5h2c0.3,1-0.2,23.3,1.3,27.5C158.1,106.6,157.7,109.3,160.3,111.8L160.3,111.8z"/>
<path fill="#FFFFFF" d="M159.1,79.1h-4.4l-2.5,10.5l-4.6-2.9c0,0-0.8,4.9-1.4,4.9c-0.3,0-3-1.3-5.4-2.5c0,0-3.5-9.5-3.8-13c-0.2-3.3,4.3-12.6,5.4-14.4l0,0c2.2-3.2,3.9-7.4,4.7-13C147.8,51.7,159.1,79.1,159.1,79.1z"/>
<path fill="#333333" d="M155.1,34.1c0.2,0.2,3.7,3.9,2.5,7.5c-1.2,3.7-3,5.1-3,5.1l0,0c-3-1.5-5.6-3-7.1-4.5l0,0v-2.5c-0.1-7.8-1.9-13.9-5-18.8C143,21.7,148.1,28.8,155.1,34.1L155.1,34.1z"/>
<path fill="#94938F" d="M69.7,46.7c1-0.1,6.1,1.7,9.2,3.3c5,4,4.7,3.7,2.1,1.3l1.8,1.3c0,0,6.9-8.1,7-11.4v-0.1c0-0.2,0-0.3-0.1-0.5c-0.8-2.9-8-14.8-10-16.7c-0.3-0.3-0.6-0.6-0.9-0.8v-1c0,0.5,23.3-9.6,30-0.9s18.1,16.9,25.4,16.8c7.3-0.1,12.8,1.8,12.8,1.8h0.3v2.5c0,1.3-0.1,2.7-0.2,4c0,0.3-0.1,0.6-0.1,0.9l-12.8,12.9l-18.1,3.6c0,0-31.3,6.9-32.8,7.6C81.7,72,66.5,69,65.8,69.1c-0.8,0.1-19.7,8.2-20.6,9.1l5.1-6.9h0.1c0-0.7,3.9-4.6,3.9-4.6l2.8-14.2V52c3.4-0.1,7.3-2,9.7-3.8c0.9-0.7,1.6-1.3,2-1.8L69.7,46.7z"/>
<path fill="#333333" d="M147.5,39.8h-0.3c0,0-5.5-1.9-12.8-1.8s-18.7-8.1-25.4-16.8c-6.7-8.7-30,1.3-30,0.9c0-2.9-0.3-10.7-2.1-12c-2.2-1.5-10.8,4.4-10.8,4.4l-0.8-1.1l-0.6-0.8l-2.9,3.2l-1.7-2.5l0.1-0.1c0.6-0.9,31.7-18.6,53.2-11.1c12.9,4.5,23.3,9.6,29.1,18.8V21C145.6,25.9,147.4,32,147.5,39.8L147.5,39.8z"/>
<path fill="#FFFFFF" d="M142.3,61.7L142.3,61.7c-5.7,8.3-15.1,10.1-21.7,11.5c-2.4,0.5-4.5,0.9-5.8,1.6c-2.4,1.2-7.4,3.1-13.1,4.5c-10.1,2.6-22.7,3.9-28.7-2c-4.2,2.9-8.1,8.6-8.1,8.6v-3.5c0,0-8,7.8-9.7,10.1c-1.6,2.4,0.1-3.7,0.1-3.7l-12.5,11.4L40.5,95l-4.7,0.6l-0.6,0.1c0,0,12.8-15.7,13.1-15.9c0.3-0.2-4.2,0-4.2,0l1.1-1.5l0,0c0.9-0.9,19.8-9.1,20.6-9.1c0.8-0.1,16,2.9,17.5,2.2c1.6-0.7,32.8-7.6,32.8-7.6l18.1-3.6L147,47.3c0,0.5-0.1,1-0.2,1.4C146.2,54.3,144.6,58.5,142.3,61.7L142.3,61.7z"/>
<path fill="#666666" d="M136.9,76.1c0.2,3.5,3.8,13,3.8,13c-2.3-1.1-4.4-2.2-4.4-2.2l-3.7-1.7l-1.5-0.7l-6.8-6.7l-1.6-2.1l-2-2.5l0,0c6.6-1.3,15.9-3.2,21.7-11.5C141.2,63.5,136.7,72.8,136.9,76.1L136.9,76.1z"/>
<path fill="#FFFFFF" d="M131.1,84.4l0.6,0.6c0,0-3.4,5.1-3.9,5.2c-0.1,0-0.5,0.1-1.1,0.2c-1.5,0.2-4.1,0.3-4.2-0.2c-0.2-0.7-5.6-0.8-5.6-0.8s-5.4,4.2-5.9,4.7s-2.7-1.5-2.7-1.5h-3.5l-3.5-5.5l-2.1-3.4c0,0,0.6-1.1,1.2-2.2c0,0,9.9,2.3,11.4,2.2c1.5-0.1,10.9-8,10.9-8l1.6,2.1L131.1,84.4L131.1,84.4z"/>
<path fill="#333333" d="M101.3,105L101.3,105c-3.1-5.4,0.3-17.4,0-17.9l3.5,5.5h3.7c0,0,2.2,2,2.7,1.5s5.9-4.7,5.9-4.7s5.4,0.2,5.6,0.8c0.1,0.5,2.7,0.4,4.2,0.2c-1,1.2-23.2,18.6-24.1,21.1l-0.8,2.2c-0.8,2.2-1.2,4.5-2.8,1.1s-0.7-1.8-2.5,1.5s-0.9-2.2-0.3-4.8c0.6-2.6,0.2-1.2-2.5,0s-2.8-0.1-1.2-1.6C93.6,109,98.1,106.7,101.3,105L101.3,105z"/>
<path fill="#666666" d="M120.7,73.2l2,2.5c0,0-9.5,7.9-10.9,8c-1.5,0.1-11.4-2.3-11.4-2.2c0.6-1,1.2-2.1,1.4-2.1v-0.1c5.8-1.5,10.7-3.4,13.1-4.5C116.2,74.1,118.3,73.7,120.7,73.2C120.7,73.2,120.7,73.2,120.7,73.2z"/>
<path fill="#FFFFFF" d="M89.8,41.2L89.8,41.2c0,0.1-18.8-14-22.1-15.3c-3.3-1.4-7.3,0.4-7.6,0.8l-4.5,0.6h-0.3c-4.6-3.3-27.8,7.9-28.6,8.2c0,0,0.1-0.4,0.3-1.2c1.6-2,8.5-10.2,13.6-11.1c5.6-1.1,10.3,1.7,15.6,1.3c5.4-0.4,12.9-5.1,16.7-2.4c3.8,2.8,16.8,18.6,16.8,18.6C89.8,40.8,89.8,41,89.8,41.2z"/>
<path fill="#333333" d="M67,38.9c-1.3-1.2-2.5-2.3-3.6-3.4c-2.2-2.1-3.7-3.7-3.9-4.3c-1.2-3,0.7-4.6,0.7-4.6c0.3-0.3,4.4-2.1,7.6-0.8c3.3,1.4,22,15.4,22,15.4l0,0c-0.1,3.3-7,11.4-7,11.4L81,51.3c-2.3-2-6.4-5.6-10.4-9.2C69.3,41,68.1,39.9,67,38.9z M68.1,30.6c0-1.6-1.3-3-3-3c-1.6,0-3,1.3-3,3c0,1.6,1.3,3,3,3C66.7,33.5,68.1,32.2,68.1,30.6z"/>
<path fill="#94938F" d="M78.9,23.2c0.2,0.2,0.5,0.5,0.9,0.8c2,1.9,9.2,13.8,10,16.7c0,0-13-15.8-16.8-18.6c-3.8-2.8-11.3,2-16.7,2.4s-10-2.4-15.6-1.3c-5.1,1-12,9.1-13.6,11.1c1-3.3,4.3-12.8,11.5-15.5c0,0-0.8-11.6,5.7-12c5.4-0.3,8.8,5.5,9.9,7.7l0.4-0.1c0.5-0.5,4-3.4,4-3.4l1.6,2.3l1.7,2.5l2.9-3.2l0.6,0.8l0.8,1.1c0,0,8.6-5.9,10.8-4.4c1.8,1.2,2.1,9.1,2.1,12C78.9,22.8,78.9,23.2,78.9,23.2z M75.8,23.2c0,0,0.9-7.7-0.4-9.5S70,16.5,69.7,17l3.2,3.3C72.9,20.3,75.8,23.2,75.8,23.2z M43,17.7l8.8-2c0,0-5.2-4.4-7.3-4.9C42.5,10.3,43.2,17.2,43,17.7z"/>
<path fill="#94938F" d="M81,51.4c2.6,2.3,2.9,2.7-2.1-1.3c0.5,0.3,0.9,0.5,1.3,0.7C80.5,51,80.7,51.2,81,51.4z"/>
<path fill="#FFFFFF" d="M70.6,42.1c4,3.6,8.1,7.2,10.4,9.2c-0.2-0.2-0.5-0.4-0.9-0.6s-0.8-0.5-1.3-0.7c-3.1-1.6-8.1-3.4-9.2-3.3l-0.9-0.2c-0.4,0.5-1.1,1.1-2,1.8c-2.4,1.8-6.3,3.6-9.7,3.8c-0.9,0-1.8,0-2.6-0.3c-1.9-0.6-3.7-2.4-5.1-4L42,49.5c0.1-0.2,2.9-3.4,5.7-6.8c0.9-1,1.7-2.1,2.6-3.1c0.7-0.8,1.3-1.6,1.9-2.3h0.6c0.6,0.1,2.7,0.2,4.8-0.8c2-0.9,4.6-1.1,5.7-1.1c1.1,1,2.3,2.2,3.6,3.4C68.1,39.9,69.3,41,70.6,42.1z M58.7,41.3L58.7,41.3c-0.9,0.1-3,0.6-3.2,2.7c-0.2,2.6-0.5,3,1.8,3.5s5.1,1.4,6.2,0s0.1-4-1.3-5C60.9,41.7,59.3,41.4,58.7,41.3z"/>
<path fill="#333333" d="M75.4,13.7c1.4,1.8,0.4,9.5,0.4,9.5l-2.9-3l-3.2-3.3C70,16.5,74.1,11.9,75.4,13.7z"/>
<path d="M65.1,27.6c1.6,0,3,1.3,3,3c0,1.6-1.3,3-3,3c-1.6,0-3-1.3-3-3C62.2,28.9,63.5,27.6,65.1,27.6z M66.7,29.2c0-0.6-0.5-1-1.1-1s-1.1,0.5-1.1,1c0,0.6,0.5,1,1.1,1S66.7,29.8,66.7,29.2z"/>
<path fill="#FFFFFF" d="M65.7,28.2c0.6,0,1.1,0.5,1.1,1c0,0.6-0.5,1-1.1,1s-1.1-0.5-1.1-1C64.6,28.6,65.1,28.2,65.7,28.2z"/>
<path fill="#333333" d="M62.1,42.5c1.4,1,2.4,3.6,1.3,5c-1.1,1.4-3.9,0.5-6.2,0s-1.9-0.9-1.8-3.5c0.1-2.1,2.3-2.6,3.2-2.7l0,0C59.3,41.4,60.9,41.7,62.1,42.5z"/>
<path fill="#94938F" d="M55.6,27.2l4.5-0.6c0,0-1.9,1.7-0.7,4.6c0.3,0.6,1.8,2.2,3.9,4.3c-1.1,0-3.7,0.1-5.7,1.1c-2.1,1-4.1,0.9-4.8,0.8h-0.6c1.3-1.6,2.2-2.7,2.2-2.8c0.1-0.3,2.5-2.3,1.5-6.3c-0.1-0.4-0.4-0.8-0.7-1C55.2,27.3,55.6,27.2,55.6,27.2z"/>
<path fill="#666666" d="M57.1,52.1v0.5l-2.8,14.2c0,0-3.9,3.9-3.9,4.6V67l-13,3.5l-0.7-2.7c0,0-2.1,0.6-4.5,1.4l0,0c0,0,0.8-1,2.5-5.4c1.6-4.4-0.1-14.2,0-14.3c0.2-0.1,0.4-0.2,0.5-0.3l5.9,0.5l1-0.2l0,0l7.3-1.7c1.4,1.6,3.2,3.4,5.1,4C55.3,52.1,56.2,52.1,57.1,52.1z"/>
<path fill="#333333" d="M47.9,42.7c-2.9,3.4-5.6,6.7-5.7,6.8l0,0l-1,0.2l-5.9-0.5c-5.9-0.5-8.6-13.8-8.6-13.8c0.8-0.4,24-11.5,28.6-8.2c0.4,0.3,0.6,0.6,0.7,1c1,4-1.4,6-1.5,6.3c0,0.1-0.9,1.2-2.2,2.8c-0.6,0.7-1.2,1.5-1.9,2.3C49.6,40.6,48.7,41.7,47.9,42.7z M51.4,33.4c1.7,0,3-1.3,3-2.9s-1.4-2.9-3-2.9c-1.7,0-3,1.3-3,2.9C48.3,32.1,49.7,33.4,51.4,33.4z"/>
<path d="M54.4,30.5c0,1.6-1.4,2.9-3,2.9c-1.7,0-3-1.3-3-2.9s1.4-2.9,3-2.9S54.4,28.9,54.4,30.5z M52.9,29.2c0-0.6-0.5-1-1.1-1s-1.1,0.5-1.1,1c0,0.6,0.5,1,1.1,1S52.9,29.8,52.9,29.2z"/>
<path fill="#94938F" d="M52.7,37.3h0.2C52.8,37.4,52.7,37.3,52.7,37.3z"/>
<path fill="#FFFFFF" d="M51.8,28.2c0.6,0,1.1,0.5,1.1,1c0,0.6-0.5,1-1.1,1s-1.1-0.5-1.1-1C50.8,28.6,51.2,28.2,51.8,28.2z"/>
<path fill="#333333" d="M51.8,15.7l-8.8,2c0.2-0.5-0.5-7.4,1.5-6.9C46.6,11.3,51.8,15.7,51.8,15.7z"/>
<path fill="#333333" d="M42.8,100.2c0.5,1.7-1.3,7-2.6,6.8c-1.4-0.2-1.6-5.1-2-3.9c-0.5,1.1-3.5,6.3-4.5,4.8s0.6-6.3-0.2-5.3s-3.5,2.8-3.8,1.7c-0.3-1.1,2.5-3.4,2-3.3c-0.5,0-4,1.2-4.6,0s5.2-2.8,5.2-2.8l3.5-2.5l4.7-0.6C40.5,95.1,42.8,100.2,42.8,100.2z"/>
<path fill="#FFFFFF" d="M34.7,49.5c-0.1,0.1,1.6,9.9,0,14.3s-2.5,5.4-2.5,5.4l0,0c-3.4,1-7.4,2.3-7.8,2.5c-0.7,0.3,2.2-2.5,2.2-2.5l-14.2,3.9l0.2-4.7L7.4,67c0,0,13.5-5.9,14-6.1S19.2,59,19.2,59l9.8-1.3c0,0-3.2-2.4-3.7-2.4S32.3,50.9,34.7,49.5z"/>
<path fill="#333333" d="M12.6,68.3L12.4,73c-0.8,1.1-4.4,4.6-5.1,3.9S6.8,72.5,6.5,73c-0.3,0.4-4.9,3.7-5.4,3c-0.4-0.7,2.3-5.4,2.3-5.4S0.3,71,0.3,70c-0.1-1,3.2-2.7,3.2-2.7s-3.7-1.5-3.1-2.4s6.6,1.8,7,1.9L12.6,68.3z"/>
<path fill="none" stroke="#000000" stroke-width="0.67" stroke-miterlimit="10" d="M42.1,49.5l-1,0.2l-5.9-0.5c-5.9-0.5-8.6-13.8-8.6-13.8s0.1-0.4,0.3-1.2c1-3.3,4.3-12.8,11.5-15.5c0,0-0.8-11.6,5.7-12c5.4-0.3,8.8,5.5,9.9,7.7c0.2,0.5,0.4,0.8,0.4,0.8"/>
<polyline fill="none" stroke="#000000" stroke-width="0.67" stroke-miterlimit="10" points="49.8,47.7 49.4,47.8 42.1,49.5"/>
<path fill="none" stroke="#000000" stroke-width="0.67" stroke-miterlimit="10" d="M47.2,44.9c0,0,0.9,1.4,2.2,3c1.4,1.6,3.2,3.4,5.1,4c0.8,0.3,1.7,0.3,2.6,0.3c3.4-0.1,7.3-2,9.7-3.8c0.9-0.7,1.6-1.3,2-1.8c1-1.1,0.9-1.7,0.9-1.7"/>
<path fill="none" stroke="#000000" stroke-width="0.67" stroke-miterlimit="10" d="M69.7,46.7L69.7,46.7c1.1-0.1,6.1,1.6,9.2,3.3c0.5,0.3,0.9,0.5,1.3,0.7c0.3,0.2,0.6,0.4,0.9,0.6l1.8,1.3c0,0,6.9-8.1,7-11.4v-0.1c0-0.2,0-0.3-0.1-0.5c-0.8-2.9-8-14.8-10-16.7c-0.3-0.3-0.6-0.6-0.9-0.8l-1.1-1"/>
<path fill="none" stroke="#000000" stroke-width="0.67" stroke-miterlimit="10" d="M54.5,14.3c0.5-0.5,4-3.4,4-3.4l1.6,2.3l1.7,2.5l2.9-3.2l0.6,0.8l0.8,1.1c0,0,8.6-5.9,10.8-4.4c1.8,1.2,2.1,9.1,2.1,12v1"/>
<path fill="none" stroke="#000000" stroke-width="0.67" stroke-miterlimit="10" d="M43,17.7c0.2-0.5-0.5-7.4,1.5-6.9s7.3,4.9,7.3,4.9L43,17.7z"/>
<path fill="none" stroke="#000000" stroke-width="0.67" stroke-miterlimit="10" d="M69.7,16.9c0.3-0.5,4.4-5.1,5.7-3.3c1.3,1.8,0.4,9.5,0.4,9.5l-2.9-3C72.9,20.1,69.7,16.9,69.7,16.9z"/>
<path fill="none" stroke="#000000" stroke-width="0.67" stroke-miterlimit="10" d="M26.7,35.4c0.8-0.4,24-11.5,28.6-8.2c0.4,0.3,0.6,0.6,0.7,1c1,4-1.4,6-1.5,6.3c0,0.1-0.9,1.2-2.2,2.8c-0.6,0.7-1.2,1.5-1.9,2.3c-0.8,1-1.7,2-2.6,3.1c-2.9,3.4-5.6,6.7-5.7,6.8l0,0"/>
<path fill="none" stroke="#000000" stroke-width="0.67" stroke-miterlimit="10" d="M60.1,26.6c0.3-0.3,4.4-2.1,7.6-0.8c3.3,1.4,22,15.4,22,15.4"/>
<path fill="none" stroke="#000000" stroke-width="0.67" stroke-miterlimit="10" d="M60.1,26.6c0,0-1.9,1.7-0.7,4.6c0.3,0.6,1.8,2.2,3.9,4.3c1.1,1,2.3,2.2,3.6,3.4c1.2,1.1,2.4,2.2,3.6,3.3c4,3.6,8.1,7.2,10.4,9.2c2.6,2.3,2.9,2.7-2.1-1.3"/>
<path fill="none" stroke="#000000" stroke-width="0.67" stroke-miterlimit="10" d="M58.7,41.3h-0.2"/>
<path fill="none" stroke="#000000" stroke-width="0.67" stroke-miterlimit="10" d="M59,41.2h-0.4c-0.9,0.1-3,0.6-3.2,2.7c-0.2,2.6-0.5,3,1.8,3.5s5.1,1.4,6.2,0s0.1-4-1.3-5c-1.2-0.8-2.8-1.2-3.4-1.3"/>
<ellipse fill="none" stroke="#000000" stroke-width="0.67" stroke-miterlimit="10" cx="51.4" cy="30.5" rx="3" ry="2.9"/>
<circle fill="none" stroke="#000000" stroke-width="0.67" stroke-miterlimit="10" cx="65.1" cy="30.6" r="3"/>
<ellipse fill="none" stroke="#000000" stroke-width="0.67" stroke-miterlimit="10" cx="51.8" cy="29.2" rx="1.1" ry="1"/>
<ellipse fill="none" stroke="#000000" stroke-width="0.67" stroke-miterlimit="10" cx="65.7" cy="29.2" rx="1.1" ry="1"/>
<path fill="none" stroke="#000000" stroke-width="0.67" stroke-miterlimit="10" d="M50.4,71.4c0-0.7,3.9-4.6,3.9-4.6l2.8-14.2"/>
<path fill="none" stroke="#000000" stroke-width="0.67" stroke-miterlimit="10" d="M35.3,49.3c-0.1,0.1-0.3,0.2-0.5,0.3c-2.4,1.3-9.9,5.8-9.5,5.8c0.5,0,3.7,2.4,3.7,2.4l-9.8,1.3c0,0,2.7,1.7,2.2,1.9s-14,6.1-14,6.1l5.2,1.4l-0.2,4.7l14.2-3.9c0,0-2.9,2.9-2.2,2.5c0.4-0.2,4.5-1.5,7.8-2.5c2.4-0.8,4.5-1.4,4.5-1.4l0.7,2.7l13-3.5v4.4"/>
<path fill="none" stroke="#000000" stroke-width="0.67" stroke-miterlimit="10" d="M45.2,78.4l-1.1,1.5c0,0,4.4-0.2,4.2,0C48,80.1,35.2,95.8,35.2,95.8l0.6-0.1l4.7-0.6l2.3,5.2l12.5-11.5c0,0-1.7,6.1-0.1,3.7c1.6-2.4,9.7-10.1,9.7-10.1v3.5c0,0,3.9-5.7,8.1-8.6s3.4-3,3.4-3"/>
<line fill="none" stroke="#000000" stroke-width="0.67" stroke-miterlimit="10" x1="50.4" y1="71.4" x2="45.2" y2="78.3"/>
<path fill="none" stroke="#000000" stroke-width="0.67" stroke-miterlimit="10" d="M142.3,61.7c-5.7,8.3-15.1,10.1-21.7,11.5c-2.4,0.5-4.5,0.9-5.8,1.6c-2.4,1.2-7.4,3.1-13.1,4.5c-10.1,2.6-22.7,3.9-28.7-2"/>
<path fill="none" stroke="#000000" stroke-width="0.67" stroke-miterlimit="10" d="M142.5,21c3.1,4.9,4.9,11,5,18.8v2.5c0,1.3-0.1,2.7-0.2,4c0,0.3-0.1,0.6-0.1,0.9c0,0.5-0.1,1-0.2,1.4c-0.8,5.5-2.4,9.7-4.7,13"/>
<path fill="none" stroke="#000000" stroke-width="0.67" stroke-miterlimit="10" d="M60.1,13.3c0.6-0.9,31.7-18.6,53.2-11.1c12.9,4.5,23.3,9.6,29.1,18.8"/>
<path fill="none" stroke="#000000" stroke-width="0.67" stroke-miterlimit="10" d="M101.7,79.3c-0.2,0-0.8,1.1-1.4,2.1c-0.6,1.1-1.2,2.2-1.2,2.2l2.1,3.4l3.5,5.5h3.7c0,0,2.2,2,2.7,1.5s5.9-4.7,5.9-4.7s5.4,0.2,5.6,0.8c0.1,0.5,2.7,0.4,4.2,0.2c0.5-0.1,0.9-0.1,1.1-0.2c0.5-0.2,3.9-5.2,3.9-5.2l-0.6-0.6l-6.8-6.7l-1.6-2.1l-2-2.5"/>
<path fill="none" stroke="#000000" stroke-width="0.67" stroke-miterlimit="10" d="M146.9,48.5c0,0,0,0.1,0.1,0.2c0.8,2.9,12.1,30.4,12.1,30.4h-4.4l-2.5,10.5l-4.6-2.9c0,0-0.8,4.9-1.4,4.9c-0.3,0-3-1.3-5.4-2.5c-2.3-1.1-4.4-2.2-4.4-2.2l-3.7-1.7l-1.5-0.7"/>
<path fill="none" stroke="#000000" stroke-width="0.67" stroke-miterlimit="10" d="M101.3,87.1c0.3,0.5-3.1,12.5,0,17.9"/>
<path fill="none" stroke="#000000" stroke-width="0.67" stroke-miterlimit="10" d="M126.8,90.4c-1,1.2-23.2,18.6-24.1,21.1"/>
<path fill="none" stroke="#000000" stroke-width="0.67" stroke-miterlimit="10" d="M132.6,85.1c0.6,0.3,17.7,17.1,21.1,19.8c0,0-5.6,10.6-4.7,11.3c0.8,0.7,2-0.9,3.2-3s0.6,0.5,2.4,2.5c1.9,2,3.2,2.7,2.1-0.8c-1.1-3.5,1.2-0.9,3.6-0.9s2.6,0.3,0-2.2s-2.3-5.2-2.3-5.2c-1.5-4.2-1-26.5-1.3-27.5"/>
<path fill="none" stroke="#000000" stroke-width="0.67" stroke-miterlimit="10" d="M184.5,49.7c-0.6,0.4-1.3,0.7-2,1.1c-2.7,1.5-6.7,1.7-11.1,1.1c-2.7-0.3-5.5-1-8.3-1.8c-3-0.9-6-2.1-8.6-3.3c-3-1.5-5.6-3-7.1-4.5"/>
<path fill="none" stroke="#000000" stroke-width="0.67" stroke-miterlimit="10" d="M193,30.3c5.3-3.4,8.9-5.7,9.8-3.1c0.8,2.3,0.9,5-1,8.3c-1.2,2.1-3.1,4.3-6.2,6.9l-0.1,0.1c-2.7,2.2-6.3,4.6-10.9,7.3"/>
<path fill="none" stroke="#000000" stroke-width="0.67" stroke-miterlimit="10" d="M179,38c2.5-1,5-2.2,7.2-3.5c2.5-1.4,4.8-2.8,6.8-4.1"/>
<path fill="none" stroke="#000000" stroke-width="0.67" stroke-miterlimit="10" d="M155.1,34.1c2.4,1.8,5,3.5,7.8,4.6c2.9,1.1,5.8,1.7,8.8,1.4c0.5-0.1,0.9-0.1,1.4-0.2c2-0.4,4-1.1,5.9-1.8"/>
<path fill="none" stroke="#000000" stroke-width="0.67" stroke-miterlimit="10" d="M142.5,21L142.5,21c0.5,0.7,5.6,7.8,12.6,13.2"/>
<path fill="none" stroke="#000000" stroke-width="0.67" stroke-miterlimit="10" d="M7.4,67c-0.4-0.1-6.5-2.8-7-1.9c-0.6,0.9,3.1,2.4,3.1,2.4s-3.2,1.7-3.2,2.7c0.1,1,3.1,0.6,3.1,0.6s-2.7,4.7-2.3,5.4c0.4,0.7,5.1-2.6,5.4-3s0.2,3.3,0.8,3.9
s4.3-2.8,5.1-3.9"/><path fill="none" stroke="#000000" stroke-width="0.67" stroke-miterlimit="10" d="M35.8,95.6l-3.5,2.5c0,0-5.8,1.6-5.2,2.8
c0.6,1.2,4.1,0,4.6,0c0.5,0-2.3,2.2-2,3.3c0.3,1.1,3-0.7,3.8-1.7s-0.8,3.8,0.2,5.3s4-3.7,4.5-4.8c0.4-1.1,0.7,3.7,2,3.9c1.3,0.2,3.1-5.1,2.6-6.8"/>
<path fill="none" stroke="#000000" stroke-width="0.67" stroke-miterlimit="10" d="M104.8,103.1c-0.1,0.1-1.5,0.9-3.4,1.9c-3.2,1.7-7.7,4.1-8.7,5c-1.6,1.5-1.5,2.8,1.2,1.6c2.7-1.2,3-2.6,2.5,0c-0.6,2.6-1.5,8.1,0.3,4.8c1.8-3.3,0.9-4.8,2.5-1.5c1.6,3.4,2,1.1,2.8-1.1l0.8-2.2"/>
<path fill="none" stroke="#000000" stroke-width="0.67" stroke-miterlimit="10" d="M26.7,34.7c0-0.1,0.1-0.2,0.3-0.4c1.6-2,8.5-10.2,13.6-11.1c5.6-1.1,10.3,1.7,15.6,1.3s12.9-5.1,16.7-2.4c3.8,2.8,16.8,18.6,16.8,18.6"/>
<path fill="none" stroke="#000000" stroke-width="0.67" stroke-miterlimit="10" d="M52.9,37.4c0.6,0.1,2.7,0.2,4.8-0.8c2-0.9,4.6-1.1,5.7-1.1h0.5"/>
<path fill="none" stroke="#000000" stroke-width="0.67" stroke-miterlimit="10" d="M52.7,37.3h0.2"/>
<path fill="none" stroke="#000000" stroke-width="0.67" stroke-miterlimit="10" d="M52.9,37.4h-0.2"/>
<path fill="none" stroke="#000000" stroke-width="0.67" stroke-miterlimit="10" d="M34.7,49.5c-0.1,0.1,1.6,9.9,0,14.3s-2.5,5.4-2.5,5.4"/>
<path fill="none" stroke="#000000" stroke-width="0.67" stroke-miterlimit="10" d="M142.5,61.5c0,0-0.1,0.1-0.1,0.2l0,0c-1.1,1.8-5.6,11.1-5.4,14.4c0.2,3.5,3.8,13,3.8,13"/>
<path fill="none" stroke="#000000" stroke-width="0.67" stroke-miterlimit="10" d="M100.4,81.4c0,0,9.9,2.3,11.4,2.2c1.5-0.1,10.9-8,10.9-8"/>
<path fill="none" stroke="#000000" stroke-width="0.67" stroke-miterlimit="10" d="M45.2,78.4C45.2,78.4,45.2,78.3,45.2,78.4c0.9-0.9,19.8-9.1,20.6-9.2s16,2.9,17.5,2.2c1.6-0.7,32.8-7.6,32.8-7.6l18.1-3.6L147,47.3"/>
<path fill="none" stroke="#000000" stroke-width="0.67" stroke-miterlimit="10" d="M78.9,22.1c0,0.5,23.3-9.6,30-0.9S127,38.1,134.3,38c7.3-0.1,12.8,1.8,12.8,1.8"/>
<path fill="none" stroke="#000000" stroke-width="0.67" stroke-miterlimit="10" d="M155.1,34.1L155.1,34.1c0.2,0.2,3.8,3.9,2.6,7.5c-1.2,3.7-3,5.1-3,5.1"/>
<path fill="none" stroke="#000000" stroke-width="0.67" stroke-miterlimit="10" d="M162.8,38.7c0,0,4.1,5.8,0.3,11.4"/>
<path fill="none" stroke="#000000" stroke-width="0.67" stroke-miterlimit="10" d="M171.5,39.8c0,0,0.1,0.1,0.2,0.2c0.7,0.9,3.3,4.1,2.5,6.8c-1,3.1-2.7,4.6-2.7,4.6"/>
<path fill="none" stroke="#000000" stroke-width="0.67" stroke-miterlimit="10" d="M179,38L179,38c0.4-0.1,6.3,1.5,6.4,5.9c0.1,4.3-0.8,5.8-0.9,5.9l0,0"/>
<path fill="none" stroke="#000000" stroke-width="0.67" stroke-miterlimit="10" d="M186.2,34.4c0,0,6.4-0.4,7.7,4.3c0.9,3.1,1.3,3.7,1.5,3.7c0.1,0,0.1-0.1,0.1-0.1"/>
<path fill="none" stroke="#000000" stroke-width="0.67" stroke-miterlimit="10" d="M193,30.3L193,30.3c0.2-0.1,5.1-1.8,6.1,1.1c1,3,2.6,4,2.6,4"/>
<line fill="none" stroke="#000000" stroke-width="0.67" stroke-miterlimit="10" x1="55.6" y1="27.2" x2="60.1" y2="26.6"/>
<polyline fill="none" stroke="#FFFFFF" stroke-width="1.01" stroke-miterlimit="10" points="63.9,40.5 67,38.9 76.1,34.1 "/>
<path fill="none" stroke="#FFFFFF" stroke-width="1.01" stroke-miterlimit="10" d="M66.7,42.4c0.4,0.3,2,0.1,3.9-0.3c3.6-0.8,8.3-2.3,8.3-2.3"/>
<polyline fill="none" stroke="#FFFFFF" stroke-width="1.01" stroke-miterlimit="10" points="52.9,40.7 50.4,39.6 40.6,35.4"/>
<polyline fill="none" stroke="#FFFFFF" stroke-width="1.01" stroke-miterlimit="10" points="54.4,43.8 47.9,42.7 37.3,40.9"/>
</g>
</svg>